# xmcd CD database file
#
# Track frame offsets:
#	150
#	22800
#	44475
#	65550
#	81150
#	103875
#	122625
#	143625
#	168750
#	193800
#	218475
#	244950
#
# Disc length: 3620 seconds
#
# Revision: 1
# Processed by: cddbd v1.5.1PL0 Copyright (c) Steve Scherf et al.
# Submitted via: freeDBTagger 0.5
#
DISCID=a40e220c
DTITLE=角松敏生 - Summer 4 Rhythm
DYEAR=2003
DGENRE=rock
TTITLE0=BEAMS
TTITLE1=All 'n All
TTITLE2=真夜中の太陽
TTITLE3=珊瑚の風
TTITLE4=波をこえて -Over the Wave-
TTITLE5=Make it higher
TTITLE6=主張#1
TTITLE7=YU-NAGI
TTITLE8=桃色の雲
TTITLE9=Last Flight (album version)
TTITLE10=Gratitude
TTITLE11=君のためにできること
EXTD=
EXTT0=
EXTT1=
EXTT2=
EXTT3=
EXTT4=
EXTT5=
EXTT6=
EXTT7=
EXTT8=
EXTT9=
EXTT10=
EXTT11=
PLAYORDER=
